<svg width="12" height="12" viewBox="0 0 12 12" fill="none" xmlns="http://www.w3.org/2000/svg">
<path d="M10.7185 0.219901C11.0117 -0.0731924 11.4871 -0.0733241 11.7802 0.219901C12.0733 0.513101 12.0732 0.988498 11.7802 1.28168L7.06087 5.99909L11.7802 10.7185C12.0731 11.0117 12.0734 11.4871 11.7802 11.7802C11.4871 12.0734 11.0117 12.0731 10.7185 11.7802L6.00007 7.06185L1.28168 11.7802C0.988491 12.0733 0.513094 12.0733 0.219901 11.7802C-0.0732792 11.4871 -0.0731697 11.0117 0.219901 10.7185L4.93731 6.00007L0.219901 1.28168C-0.0732891 0.988438 -0.0733113 0.513112 0.219901 0.219901C0.513146 -0.0732891 0.988473 -0.0733113 1.28168 0.219901L5.99909 4.93829L10.7185 0.219901Z" fill="#737373"/>
</svg>
