<svg width="16" height="16" viewBox="0 0 16 16" fill="none" xmlns="http://www.w3.org/2000/svg">
<path d="M8.01803 6.96449e-09C6.46524 -6.46292e-05 4.94584 0.449779 3.64439 1.29489C2.34294 2.14 1.31543 3.34401 0.686685 4.76068C0.0579366 6.17735 -0.144999 7.74571 0.102528 9.27526C0.350055 10.8048 1.03739 12.2297 2.08105 13.3769C3.12471 14.5242 4.47978 15.3443 5.98167 15.7378C7.48356 16.1312 9.06764 16.081 10.5415 15.5933C12.0154 15.1056 13.3156 14.2014 14.2842 12.9904C15.2528 11.7795 15.8482 10.3139 15.998 8.77176C16.0065 8.67964 15.9877 8.58706 15.9437 8.50558C15.8998 8.42411 15.8328 8.35735 15.7511 8.31367C15.6694 8.26998 15.5765 8.2513 15.4842 8.25996C15.3919 8.26862 15.3042 8.30423 15.2321 8.36235C14.7446 8.75593 14.1834 9.04857 13.5812 9.22315C12.9791 9.39772 12.348 9.45072 11.7251 9.37906C11.1022 9.30739 10.4998 9.11249 9.95325 8.80576C9.4067 8.49903 8.92695 8.08664 8.54204 7.59269C8.15714 7.09875 7.87482 6.53317 7.7116 5.92906C7.54838 5.32494 7.50753 4.69441 7.59145 4.07436C7.67537 3.4543 7.88237 2.85717 8.20034 2.3179C8.51831 1.77862 8.94087 1.30803 9.4433 0.933647C9.51785 0.878068 9.57426 0.801723 9.60542 0.714224C9.63658 0.626725 9.6411 0.531984 9.61841 0.441928C9.59572 0.351872 9.54683 0.270526 9.47791 0.208133C9.40898 0.145739 9.3231 0.105087 9.23107 0.091294C8.82958 0.0306122 8.4241 9.51653e-05 8.01803 6.96449e-09Z" fill="#5E5E5E"/>
</svg>
