<svg width="20" height="20" viewBox="0 0 20 20" fill="none" xmlns="http://www.w3.org/2000/svg">
<path d="M10 0C10.185 0 10.3625 0.0735048 10.4933 0.204344C10.6242 0.335183 10.6977 0.51264 10.6977 0.697674V1.62791C10.6977 1.81294 10.6242 1.9904 10.4933 2.12124C10.3625 2.25208 10.185 2.32558 10 2.32558C9.81497 2.32558 9.63751 2.25208 9.50667 2.12124C9.37583 1.9904 9.30233 1.81294 9.30233 1.62791V0.697674C9.30233 0.51264 9.37583 0.335183 9.50667 0.204344C9.63751 0.0735048 9.81497 0 10 0ZM10 4.65116C8.5814 4.65116 7.2209 5.2147 6.2178 6.2178C5.2147 7.2209 4.65116 8.5814 4.65116 10C4.65116 11.4186 5.2147 12.7791 6.2178 13.7822C7.2209 14.7853 8.5814 15.3488 10 15.3488C11.4186 15.3488 12.7791 14.7853 13.7822 13.7822C14.7853 12.7791 15.3488 11.4186 15.3488 10C15.3488 8.5814 14.7853 7.2209 13.7822 6.2178C12.7791 5.2147 11.4186 4.65116 10 4.65116ZM3.91628 2.9293C3.78476 2.80215 3.60856 2.73175 3.42563 2.73325C3.2427 2.73475 3.06768 2.80804 2.93826 2.93734C2.80884 3.06663 2.73539 3.24158 2.73371 3.42451C2.73204 3.60744 2.80228 3.78371 2.9293 3.91535L3.58698 4.57302C3.65085 4.64157 3.72787 4.69655 3.81345 4.73468C3.89903 4.77281 3.99142 4.79332 4.0851 4.79497C4.17877 4.79662 4.27182 4.77939 4.3587 4.7443C4.44557 4.70921 4.52448 4.65698 4.59073 4.59073C4.65698 4.52448 4.70921 4.44557 4.7443 4.3587C4.77939 4.27182 4.79662 4.17877 4.79497 4.0851C4.79332 3.99142 4.77281 3.89903 4.73468 3.81345C4.69655 3.72787 4.64157 3.65085 4.57302 3.58698L3.91628 2.9293ZM20 10C20 10.185 19.9265 10.3625 19.7957 10.4933C19.6648 10.6242 19.4874 10.6977 19.3023 10.6977H18.3721C18.1871 10.6977 18.0096 10.6242 17.8788 10.4933C17.7479 10.3625 17.6744 10.185 17.6744 10C17.6744 9.81497 17.7479 9.63751 17.8788 9.50667C18.0096 9.37583 18.1871 9.30233 18.3721 9.30233H19.3023C19.4874 9.30233 19.6648 9.37583 19.7957 9.50667C19.9265 9.63751 20 9.81497 20 10ZM17.0707 3.91628C17.1374 3.85195 17.1905 3.77499 17.2272 3.68989C17.2638 3.60479 17.283 3.51325 17.2839 3.42061C17.2847 3.32798 17.2671 3.2361 17.2321 3.15034C17.1971 3.06459 17.1453 2.98666 17.0798 2.92113C17.0143 2.85559 16.9365 2.80375 16.8507 2.76863C16.765 2.73351 16.6732 2.71581 16.5805 2.71657C16.4879 2.71733 16.3963 2.73654 16.3112 2.77306C16.226 2.80959 16.149 2.8627 16.0847 2.9293L15.427 3.58698C15.3584 3.65085 15.3035 3.72787 15.2653 3.81345C15.2272 3.89903 15.2067 3.99142 15.205 4.0851C15.2034 4.17877 15.2206 4.27182 15.2557 4.3587C15.2908 4.44557 15.343 4.52448 15.4093 4.59073C15.4755 4.65698 15.5544 4.70921 15.6413 4.7443C15.7282 4.77939 15.8212 4.79662 15.9149 4.79497C16.0086 4.79332 16.101 4.77281 16.1865 4.73468C16.2721 4.69655 16.3492 4.64157 16.413 4.57302L17.0707 3.91628ZM10 17.6744C10.185 17.6744 10.3625 17.7479 10.4933 17.8788C10.6242 18.0096 10.6977 18.1871 10.6977 18.3721V19.3023C10.6977 19.4874 10.6242 19.6648 10.4933 19.7957C10.3625 19.9265 10.185 20 10 20C9.81497 20 9.63751 19.9265 9.50667 19.7957C9.37583 19.6648 9.30233 19.4874 9.30233 19.3023V18.3721C9.30233 18.1871 9.37583 18.0096 9.50667 17.8788C9.63751 17.7479 9.81497 17.6744 10 17.6744ZM16.413 15.427C16.3492 15.3584 16.2721 15.3035 16.1865 15.2653C16.101 15.2272 16.0086 15.2067 15.9149 15.205C15.8212 15.2034 15.7282 15.2206 15.6413 15.2557C15.5544 15.2908 15.4755 15.343 15.4093 15.4093C15.343 15.4755 15.2908 15.5544 15.2557 15.6413C15.2206 15.7282 15.2034 15.8212 15.205 15.9149C15.2067 16.0086 15.2272 16.101 15.2653 16.1865C15.3035 16.2721 15.3584 16.3492 15.427 16.413L16.0847 17.0707C16.1485 17.1392 16.2255 17.1942 16.3111 17.2324C16.3967 17.2705 16.4891 17.291 16.5828 17.2926C16.6764 17.2943 16.7695 17.2771 16.8564 17.242C16.9432 17.2069 17.0222 17.1547 17.0884 17.0884C17.1547 17.0222 17.2069 16.9432 17.242 16.8564C17.2771 16.7695 17.2943 16.6764 17.2926 16.5828C17.291 16.4891 17.2705 16.3967 17.2324 16.3111C17.1942 16.2255 17.1392 16.1485 17.0707 16.0847L16.413 15.427ZM2.32558 10C2.32558 10.185 2.25208 10.3625 2.12124 10.4933C1.9904 10.6242 1.81294 10.6977 1.62791 10.6977H0.697674C0.51264 10.6977 0.335183 10.6242 0.204344 10.4933C0.0735048 10.3625 0 10.185 0 10C0 9.81497 0.0735048 9.63751 0.204344 9.50667C0.335183 9.37583 0.51264 9.30233 0.697674 9.30233H1.62791C1.81294 9.30233 1.9904 9.37583 2.12124 9.50667C2.25208 9.63751 2.32558 9.81497 2.32558 10ZM4.57302 16.413C4.69626 16.2808 4.76335 16.1058 4.76016 15.9251C4.75697 15.7444 4.68375 15.5719 4.55593 15.4441C4.4281 15.3162 4.25565 15.243 4.0749 15.2398C3.89416 15.2366 3.71923 15.3037 3.58698 15.427L2.9293 16.0847C2.80607 16.2169 2.73897 16.3918 2.74216 16.5726C2.74535 16.7533 2.81857 16.9258 2.9464 17.0536C3.07422 17.1814 3.24668 17.2546 3.42742 17.2578C3.60817 17.261 3.78309 17.1939 3.91535 17.0707L4.57302 16.413Z" fill="#F9B22F"/>
</svg>
