<svg width="256" height="256" viewBox="0 0 256 256" fill="none" xmlns="http://www.w3.org/2000/svg">
<rect width="256" height="256" rx="32" fill="#0C0A0A"/>
<path d="M59.8477 187.864C62.1355 185.577 65.8461 185.578 68.1349 187.864C84.7512 204.48 115.483 204.642 145.237 186.971C148.019 185.32 151.612 186.236 153.265 189.016C154.918 191.799 154.003 195.399 151.22 197.051C119.322 215.995 81.9572 218.26 59.8477 196.151C57.562 193.862 57.56 190.152 59.8477 187.864ZM135.134 76.0673C148.248 73.7527 161.41 76.3065 170.556 85.453C172.844 87.7417 172.845 91.4516 170.556 93.7399C168.268 96.0281 164.558 96.0276 162.269 93.7399C156.569 88.0402 147.687 85.7489 137.171 87.6049C126.679 89.457 115.131 95.4033 105.274 105.262C95.4158 115.124 89.4695 126.681 87.6165 137.174C85.7605 147.687 88.0451 156.564 93.7441 162.263C99.444 167.962 108.326 170.253 118.842 168.398C129.336 166.547 140.893 160.598 150.754 150.741C162.77 138.709 168.894 124.277 169.03 112.305C169.067 109.069 171.723 106.477 174.959 106.514C178.195 106.552 180.788 109.207 180.751 112.443C180.573 128.035 172.791 145.261 159.041 159.028L159.034 159.035C147.682 170.382 134.014 177.618 120.879 179.936C107.765 182.249 94.6037 179.696 85.4569 170.55C76.3099 161.403 73.7552 148.241 76.071 135.129C78.3912 121.995 85.6317 108.327 96.9796 96.9753C108.329 85.6225 121.998 78.3863 135.134 76.0673ZM101.413 61.0349C134.098 40.1816 173.27 36.9691 196.158 59.8445H196.166C210.258 73.9411 214.422 94.4511 210.718 115.442C207.009 136.454 195.379 158.532 176.959 176.952C174.67 179.24 170.952 179.241 168.664 176.952C166.375 174.664 166.376 170.946 168.664 168.658C185.593 151.729 195.937 131.774 199.18 113.404C202.426 95.0112 198.518 78.7811 187.871 68.1314V68.1238C170.67 50.9402 138.319 51.392 107.716 70.9166C104.988 72.6567 101.361 71.8516 99.6198 69.1234C97.8822 66.3953 98.6858 62.775 101.413 61.0349ZM79.0546 79.0509C81.3426 76.763 85.0529 76.7643 87.3418 79.0509C89.6304 81.3395 89.6304 85.0492 87.3418 87.3378C62.6218 112.057 52.1965 142.9 56.7878 165.926C57.4186 169.098 55.3583 172.183 52.1864 172.816C49.0122 173.449 45.9209 171.389 45.288 168.215C39.7214 140.296 52.4217 105.683 79.0546 79.0509ZM129.701 106.842C134.937 105.918 140.751 106.856 144.947 111.054L145.695 111.863C149.257 115.977 150.032 121.39 149.167 126.3C148.24 131.559 145.396 136.822 141.117 141.103C136.835 145.385 131.565 148.234 126.305 149.161C121.067 150.084 115.254 149.143 111.059 144.942V144.934C106.864 140.739 105.923 134.93 106.846 129.696C107.774 124.436 110.616 119.173 114.897 114.892C119.178 110.612 124.441 107.77 129.701 106.842ZM136.66 119.341C135.91 118.59 134.376 117.914 131.738 118.379C129.122 118.841 125.974 120.389 123.184 123.179C120.394 125.969 118.845 129.117 118.384 131.733C117.977 134.041 118.445 135.503 119.071 136.334L119.346 136.655L119.353 136.662C120.104 137.413 121.639 138.081 124.275 137.616C126.891 137.154 130.033 135.605 132.822 132.817C135.611 130.027 137.167 126.886 137.629 124.27C138.094 121.634 137.418 120.099 136.668 119.348L136.66 119.341Z" fill="#FAFAFA"/>
</svg>
